<?xml version="1.0" encoding="UTF-8"?>
<svg width="120px" height="132px" viewBox="0 0 120 132" version="1.1" xmlns="http://www.w3.org/2000/svg" xmlns:xlink="http://www.w3.org/1999/xlink">
    <!-- Generator: Sketch 56.3 (81716) - https://sketch.com -->
    <title>Slice 1</title>
    <desc>Created with Sketch.</desc>
    <g id="Page-1" stroke="none" stroke-width="1" fill="none" fill-rule="evenodd">
        <g id="Deliveroo_logo" fill="#00CCBC" fill-rule="nonzero">
            <path d="M86.4,0.4 L80.3,58.4 L69.9,9.5 L37.1,16.4 L47.4,65.3 L0.2,75.3 L8.6,114.3 L91.7,132 L110.7,89.5 L119.7,3.9 L86.4,0.4 L86.4,0.4 L86.4,0.4 Z M60.1,84.6 C58.4,86.2 56.2,86 53.7,85.2 C51.3,84.4 50.3,81.6 51.1,78 C51.8,75.4 54.9,75 56.6,75 C57.2,75 57.8,75.1 58.4,75.4 C59.5,75.9 61.4,77 61.8,78.6 C62.4,81 61.8,83 60.1,84.6 L60.1,84.6 L60.1,84.6 L60.1,84.6 Z M84.2,87.2 C82.9,89.4 79.7,89.7 76.4,88.1 C74.2,87 74.2,84.4 74.5,82.7 C74.6,81.8 75,80.9 75.6,80.2 C76.4,79.2 77.7,77.9 79.1,77.9 C81.6,77.8 83.6,78.9 84.8,80.9 C86,82.9 85.4,85.1 84.2,87.2 L84.2,87.2 L84.2,87.2 Z" id="Shape"></path>
        </g>
    </g>
</svg>