<?xml version="1.0" encoding="UTF-8"?>
<svg width="484px" height="485px" viewBox="0 0 484 485" version="1.1" xmlns="http://www.w3.org/2000/svg" xmlns:xlink="http://www.w3.org/1999/xlink">
    <!-- Generator: Sketch 56.3 (81716) - https://sketch.com -->
    <title>Slice 1</title>
    <desc>Created with Sketch.</desc>
    <g id="Page-1" stroke="none" stroke-width="1" fill="none" fill-rule="evenodd">
        <g id="MV5BMjEzMzg4MDkwN15BMl5BZXBzXkFtZTgwNDExNDQ2OTE@._V1_">
            <g id="g10" transform="translate(241.999994, 242.240006) scale(-1, 1) rotate(-180.000000) translate(-241.999994, -242.240006) translate(0.000000, 0.240012)">
                <g id="g12">
                    <path d="M450.573322,483.239988 L32.6458659,483.239988 C14.9062663,482.062655 1.16666664,468.261322 0.0208333328,451.114655 L0,32.6469325 C1.18749997,15.0103996 14.354133,1.58385329 31.3333325,0.052083332 C31.6354659,0.0104166664 31.9374659,0 32.2395992,0 L450.989322,0 C451.281322,0 451.573322,0.0104166664 451.874655,0.0427083989 C469.447988,1.58385329 483.218655,16.6879996 483.218655,34.4374658 L483.218655,448.813322 C483.218655,466.761322 469.207988,481.865321 451.322655,483.198655 C451.073322,483.218655 450.833322,483.239988 450.573322,483.239988 L450.573322,483.239988" id="path14" fill="#E5B922" fill-rule="nonzero"></path>
                    <polygon id="path16" fill="#010101" points="58.1770652 168.646662 96.5415976 168.646662 96.5415976 316.917325 58.1770652 316.917325"></polygon>
                    <path d="M178.187996,316.917325 L169.322662,247.551994 L163.854663,285.239993 C162.218663,297.395993 160.718663,307.906659 159.207996,316.917325 L109.520797,316.917325 L109.520797,168.646662 L143.103996,168.646662 L143.239996,266.54266 L157.302663,168.646662 L181.197329,168.646662 L194.707995,268.729327 L194.707995,168.646662 L228.166661,168.646662 L228.166661,316.917325 L178.187996,316.917325" id="path18" fill="#010101"></path>
                    <path d="M288.114659,290.155993 C289.603993,289.343993 290.562659,287.979993 290.969326,286.06266 C291.521326,284.14666 291.655993,279.781326 291.655993,273.09466 L291.655993,215.614661 C291.655993,205.781328 290.969326,199.770662 289.739993,197.583995 C288.510659,195.261328 285.093326,194.166662 279.635993,194.166662 L279.635993,291.531993 C283.739993,291.531993 286.593326,291.114659 288.114659,290.155993 L288.114659,290.155993 Z M287.687993,168.646662 C296.833326,168.646662 303.802659,169.187996 308.311992,170.146662 C312.947992,171.103996 316.781325,172.875996 319.781325,175.479996 C322.906659,177.927996 325.093325,181.479995 326.322659,185.979995 C327.551992,190.489329 328.374658,199.375995 328.374658,212.614661 L328.374658,264.625327 C328.374658,278.687993 327.833325,288.114659 326.885325,292.885326 C326.062659,297.666659 323.999992,302.042659 320.593325,305.854659 C317.177325,309.822659 312.135992,312.542659 305.573326,314.333325 C299.155993,315.958659 288.374659,316.917325 269.947993,316.917325 L241.270661,316.917325 L241.270661,168.646662 L287.687993,168.646662 L287.687993,168.646662 Z" id="path20" fill="#010101"></path>
                    <path d="M391.177324,204.542662 C391.177324,197.447995 390.781324,192.947995 390.08399,191.042662 C389.417324,189.125329 386.270657,188.166662 383.94799,188.166662 C381.75999,188.166662 380.125324,189.125329 379.447991,190.885329 C378.614657,192.677329 378.218657,196.906662 378.218657,203.447995 L378.218657,242.646661 C378.218657,249.343994 378.614657,253.573327 379.311991,255.209327 C379.989324,256.833327 381.49999,257.666662 383.68799,257.666662 C385.99999,257.666662 389.13599,256.833327 389.94799,254.791994 C390.781324,252.885327 391.177324,248.781327 391.177324,242.646661 L391.177324,204.542662 Z M341.354658,316.917325 L341.354658,168.646662 L375.895991,168.646662 L378.218657,178.062662 C381.354658,174.250662 384.75999,171.375996 388.593324,169.458662 C392.270657,167.687996 397.874657,166.729329 402.23999,166.729329 C408.374656,166.729329 413.573323,168.239996 417.94799,171.499996 C422.311989,174.646662 425.177323,178.479996 426.406656,182.833329 C427.499989,187.209329 428.187989,193.770662 428.187989,202.646662 L428.187989,244.281327 C428.187989,253.155994 427.906656,259.021327 427.499989,261.761327 C427.093323,264.489327 425.999989,267.35466 424.083989,270.21866 C422.030656,273.09466 419.177323,275.281326 415.489323,276.917326 C411.79199,278.40666 407.426656,279.239993 402.23999,279.239993 C397.874657,279.239993 392.270657,278.281326 388.458657,276.64666 C384.75999,274.865326 381.354658,272.14666 378.218657,268.583993 L378.218657,316.917325 L341.354658,316.917325 L341.354658,316.917325 Z" id="path22" fill="#010101"></path>
                </g>
            </g>
        </g>
    </g>
</svg>