<?xml version="1.0" encoding="UTF-8"?>
<svg width="153px" height="278px" viewBox="0 0 153 278" version="1.1" xmlns="http://www.w3.org/2000/svg" xmlns:xlink="http://www.w3.org/1999/xlink">
    <!-- Generator: Sketch 56.3 (81716) - https://sketch.com -->
    <title>Slice 1</title>
    <desc>Created with Sketch.</desc>
    <defs>
        <radialGradient cx="48.3397238%" cy="49.4186079%" fx="48.3397238%" fy="49.4186079%" r="22.6655152%" gradientTransform="translate(0.483397,0.494186),scale(1.000000,0.550875),rotate(-19.098215),translate(-0.483397,-0.494186)" id="radialGradient-1">
            <stop stop-color="#000000" offset="0%"></stop>
            <stop stop-color="#000000" stop-opacity="0" offset="100%"></stop>
        </radialGradient>
    </defs>
    <g id="Page-1" stroke="none" stroke-width="1" fill="none" fill-rule="evenodd">
        <g id="netflix" fill-rule="nonzero">
            <path d="M98.4899957,0.692140707 L98.3826719,61.7475587 L98.2747812,122.802974 L93.251563,108.629395 C93.2498186,108.624511 93.2436258,108.606456 93.2419105,108.601572 L86.750798,244.527103 C93.1327986,262.549767 96.5521258,272.170906 96.5905326,272.209307 C96.6407841,272.259575 100.277771,272.478977 104.672767,272.69709 C117.988616,273.357855 134.489592,274.773756 147.007247,276.32907 C149.905562,276.689152 152.399882,276.873554 152.550046,276.73906 C152.700214,276.604564 152.781984,214.438883 152.731759,138.593228 L152.640336,0.692140707 L125.565166,0.692140707 L98.4899957,0.692140707 L98.4899957,0.692140707 Z" id="path4155" stroke="#000000" stroke-width="0.5" fill="#B1060F"></path>
            <path d="M0.546931242,0.510428157 L0.546931242,138.551207 C0.546931242,214.473734 0.621221147,276.666826 0.712176274,276.757798 C0.803125586,276.848742 5.50493927,276.404846 11.1606479,275.771439 C16.8163507,275.138004 24.6329297,274.350351 28.5306639,274.021321 C34.508562,273.516654 52.356799,272.369086 54.4235684,272.35638 C55.0247782,272.352601 55.0633391,269.25082 55.1504186,213.888094 L55.2424088,155.423785 L59.5609224,167.64225 C60.2283191,169.530732 60.4376636,170.120454 61.0878747,171.960196 L67.5772835,36.0681685 C66.2022951,32.1806299 66.9230834,34.2213811 65.3473303,29.7661499 C60.0451238,14.7748633 55.545828,2.05952038 55.3485987,1.50984718 L54.989715,0.510428157 L27.768608,0.510428157 L0.546931242,0.510428157 Z" id="path4157" stroke="#000000" stroke-width="0.5" fill="#B1060F"></path>
            <path d="M0.546916705,0.510428157 L0.546916705,77.9966356 L55.1322474,222.792009 C55.1379459,219.473891 55.1444585,217.68099 55.1504186,213.888094 L55.2424088,155.423785 L59.5609224,167.64225 C83.5996291,235.662723 96.5145768,272.133365 96.5905326,272.209307 C96.6407841,272.259575 100.277771,272.478977 104.672767,272.69709 C117.988616,273.357855 134.489592,274.773756 147.007247,276.32907 C149.905562,276.689152 152.399882,276.873554 152.550046,276.73906 C152.653259,276.646616 152.720635,246.16538 152.738574,203.164783 L98.4087949,46.9663786 L98.3826574,61.7475587 L98.2747666,122.802974 L93.2515485,108.629395 C88.3433181,94.7802534 85.0661221,85.5184664 65.3473158,29.7661499 C60.0451093,14.7748633 55.5458135,2.05952038 55.3485842,1.50984718 L54.9897004,0.510428157 L27.7685935,0.510428157 L0.546916705,0.510428157 L0.546916705,0.510428157 Z" id="path5623" fill="url(#radialGradient-1)"></path>
            <path d="M0.548068036,0.51041362 L55.2424088,155.494199 L55.2424088,155.423785 L59.5609224,167.64225 C83.5996291,235.662723 96.5145768,272.133365 96.5905326,272.209307 C96.6407841,272.259575 100.277771,272.478977 104.672767,272.69709 C117.988616,273.357855 134.489592,274.773756 147.007247,276.32907 C149.890708,276.687306 152.372253,276.871318 152.545505,276.740761 L98.2747812,122.774584 L98.2747812,122.80296 L93.251563,108.629381 C88.3433326,94.7802388 85.0661366,85.5184519 65.3473303,29.7661353 C60.0451238,14.7748488 55.545828,2.05950584 55.3485987,1.50983264 L54.989715,0.51041362 L27.768608,0.51041362 L0.548068036,0.51041362 L0.548068036,0.51041362 Z" id="path4159" fill="#E50914"></path>
            <path d="M98.4899957,0.692140707 L98.3826719,61.7475587 L98.2747812,122.802974 L93.251563,108.629395 C93.2498186,108.624511 93.2436258,108.606456 93.2419105,108.601572 L86.750798,244.527103 C93.1327986,262.549767 96.5521258,272.170906 96.5905326,272.209307 C96.6407841,272.259575 100.277771,272.478977 104.672767,272.69709 C117.988616,273.357855 134.489592,274.773756 147.007247,276.32907 C149.905562,276.689152 152.399882,276.873554 152.550046,276.73906 C152.700214,276.604564 152.781984,214.438883 152.731759,138.593228 L152.640336,0.692140707 L125.565166,0.692140707 L98.4899957,0.692140707 L98.4899957,0.692140707 Z" id="path5715" stroke="#000000" stroke-width="0.5" fill="#B1060F"></path>
            <path d="M0.546931242,0.510428157 L0.546931242,138.551207 C0.546931242,214.473734 0.621221147,276.666826 0.712176274,276.757798 C0.803125586,276.848742 5.50493927,276.404846 11.1606479,275.771439 C16.8163507,275.138004 24.6329297,274.350351 28.5306639,274.021321 C34.508562,273.516654 52.356799,272.369086 54.4235684,272.35638 C55.0247782,272.352601 55.0633391,269.25082 55.1504186,213.888094 L55.2424088,155.423785 L59.5609224,167.64225 C60.2283191,169.530732 60.4376636,170.120454 61.0878747,171.960196 L67.5772835,36.0681685 C66.2022951,32.1806299 66.9230834,34.2213811 65.3473303,29.7661499 C60.0451238,14.7748633 55.545828,2.05952038 55.3485987,1.50984718 L54.989715,0.510428157 L27.768608,0.510428157 L0.546931242,0.510428157 Z" id="path5717" stroke="#000000" stroke-width="0.5" fill="#B1060F"></path>
            <path d="M0.546916705,0.510428157 L0.546916705,77.9966356 L55.1322474,222.792009 C55.1379459,219.473891 55.1444585,217.68099 55.1504186,213.888094 L55.2424088,155.423785 L59.5609224,167.64225 C83.5996291,235.662723 96.5145768,272.133365 96.5905326,272.209307 C96.6407841,272.259575 100.277771,272.478977 104.672767,272.69709 C117.988616,273.357855 134.489592,274.773756 147.007247,276.32907 C149.905562,276.689152 152.399882,276.873554 152.550046,276.73906 C152.653259,276.646616 152.720635,246.16538 152.738574,203.164783 L98.4087949,46.9663786 L98.3826574,61.7475587 L98.2747666,122.802974 L93.2515485,108.629395 C88.3433181,94.7802534 85.0661221,85.5184664 65.3473158,29.7661499 C60.0451093,14.7748633 55.5458135,2.05952038 55.3485842,1.50984718 L54.9897004,0.510428157 L27.7685935,0.510428157 L0.546916705,0.510428157 L0.546916705,0.510428157 Z" id="path5719" fill="url(#radialGradient-1)"></path>
            <path d="M0.548068036,0.51041362 L55.2424088,155.494199 L55.2424088,155.423785 L59.5609224,167.64225 C83.5996291,235.662723 96.5145768,272.133365 96.5905326,272.209307 C96.6407841,272.259575 100.277771,272.478977 104.672767,272.69709 C117.988616,273.357855 134.489592,274.773756 147.007247,276.32907 C149.890708,276.687306 152.372253,276.871318 152.545505,276.740761 L98.2747812,122.774584 L98.2747812,122.80296 L93.251563,108.629381 C88.3433326,94.7802388 85.0661366,85.5184519 65.3473303,29.7661353 C60.0451238,14.7748488 55.545828,2.05950584 55.3485987,1.50983264 L54.989715,0.51041362 L27.768608,0.51041362 L0.548068036,0.51041362 L0.548068036,0.51041362 Z" id="path5721" fill="#E50914"></path>
        </g>
    </g>
</svg>