<?xml version="1.0" encoding="UTF-8"?>
<svg width="167px" height="167px" viewBox="0 0 167 167" version="1.1" xmlns="http://www.w3.org/2000/svg" xmlns:xlink="http://www.w3.org/1999/xlink">
    <!-- Generator: Sketch 56.3 (81716) - https://sketch.com -->
    <title>Slice 1</title>
    <desc>Created with Sketch.</desc>
    <defs>
        <path d="M0.820895522,1.14766331 L0.820895522,1.63618544 C0.903119906,2.04328721 1.06756867,2.53180934 1.56091498,2.93891112 C23.1859279,23.7011016 51.717789,36.1584158 83.4564011,36.1584158 C106.068107,36.1584158 132.379909,28.5863229 150.551498,14.4191811 C153.511576,12.0579908 150.96262,8.55691559 147.920318,9.94106162 C127.610895,19.0601413 105.492536,23.5382609 85.4297863,23.5382609 C55.6645594,23.5382609 26.8038008,14.8262829 3.4520758,0.414880119 C3.04095388,0.170619055 2.62983196,0.00777834507 2.30093443,0.00777834507 C1.47869059,-0.0736420096 0.903119906,0.496300473 0.820895522,1.14766331" id="path-1"></path>
        <path d="M1.07694074,6.20428814 C0.414207978,6.70081882 0.0828415957,7.2801046 0,7.69388016 L0,8.02490061 C0.0828415957,8.60418639 0.57989117,8.93520684 1.49114872,8.85245173 C7.37290202,8.10765572 20.4618741,6.45255348 22.7814388,9.59724773 C25.1010035,12.8246971 20.2133494,25.9827599 17.9766263,31.8583728 C17.3138935,33.5962302 18.7222006,34.3410262 20.2133494,33.0169444 C29.9886576,24.2449025 32.5567471,5.95602281 30.5685488,3.30785923 C29.5744497,2.06653255 25.1010035,0.82520587 19.5506166,0.82520587 C13.6688633,0.742450758 6.54448606,2.14928766 1.07694074,6.20428814" id="path-3"></path>
        <path d="M15.2299064,7.3960396 C13.027255,7.3960396 10.987763,7.98064075 9.02985075,9.14984303 L9.02985075,26.1867906 C10.9061834,27.3559929 12.9456753,27.9405941 15.2299064,27.9405941 C17.5957171,27.9405941 19.3088903,27.1054496 20.4510058,25.518675 C21.5931213,23.8483861 22.1641791,21.2594381 22.1641791,17.7518313 C22.1641791,14.16071 21.5931213,11.5717621 20.5325855,9.90147307 C19.39047,8.23118409 17.6772967,7.3960396 15.2299064,7.3960396 Z M0.0820895522,2.56552846 C0.0820895522,1.98621558 0.246268657,1.57242067 0.492537313,1.32414372 C0.73880597,1.07586677 1.14925373,0.993107791 1.7238806,0.993107791 L6.32089552,0.993107791 C7.30597015,0.993107791 7.88059701,1.48966169 8.12686567,2.4000105 L8.53731343,4.05519015 C9.85074627,2.81380541 11.3283582,1.82069762 13.1343284,1.07586677 C14.9402985,0.33103593 16.7462687,0 18.6343284,0 C22.738806,0 26.0223881,1.48966169 28.4029851,4.55174404 C30.7835821,7.6138264 32.0149254,11.6690165 32.0149254,16.8828325 C32.0149254,20.4414687 31.4402985,23.5035511 30.2089552,26.1518385 C28.9776119,28.8001259 27.4179104,30.8691005 25.3656716,32.2760032 C23.3134328,33.6829059 21.0149254,34.4277368 18.3059701,34.4277368 C16.5820896,34.4277368 14.9402985,34.1794598 13.2985075,33.6001469 C11.738806,33.0208341 10.4253731,32.2760032 9.2761194,31.2828954 L9.2761194,45.2691635 C9.2761194,45.8484764 9.19402985,46.2622713 8.94776119,46.5105482 C8.70149254,46.7588252 8.29104478,46.8415842 7.71641791,46.8415842 L1.64179104,46.8415842 C1.06716418,46.8415842 0.656716418,46.7588252 0.410447761,46.5105482 C0.164179104,46.2622713 0,45.8484764 0,45.2691635 L0,2.56552846 L0.0820895522,2.56552846 Z" id="path-5"></path>
        <path d="M9.7070097,5.92960123 C11.4510134,4.03476513 13.0289215,2.71661828 14.6068297,1.97516067 C16.10169,1.15131889 17.7626459,0.821782178 19.5066496,0.821782178 L20.4201754,0.821782178 C21.00151,0.821782178 21.4167489,0.904166356 21.7489401,1.15131889 C21.9980835,1.39847143 22.1641791,1.81039232 22.1641791,2.38708157 L22.1641791,7.74205315 C22.1641791,8.3187424 22.0811313,8.73066329 21.8319879,8.97781583 C21.5828445,9.22496836 21.1676056,9.38973672 20.586271,9.38973672 C20.2540798,9.38973672 19.9218886,9.38973672 19.4236018,9.30735254 C18.8422673,9.14258418 18.1778849,9.14258418 17.5135025,9.14258418 C16.516929,9.14258418 15.3542598,9.30735254 13.8593995,9.55450507 C12.447587,9.80165761 11.20187,10.2135785 10.2883443,10.6254994 L10.2883443,32.0453857 C10.2883443,32.622075 10.2052965,33.0339959 9.95615309,33.2811484 C9.7070097,33.528301 9.29177072,33.6930693 8.71043615,33.6930693 L2.48185144,33.6930693 C1.90051687,33.6930693 1.48527789,33.528301 1.2361345,33.2811484 C0.986991114,33.0339959 0.820895522,32.622075 0.820895522,32.0453857 L0.820895522,2.6342341 C0.820895522,2.05754485 0.986991114,1.64562396 1.2361345,1.39847143 C1.48527789,1.15131889 1.90051687,1.06893471 2.48185144,1.06893471 L7.13252802,1.06893471 C8.12910157,1.06893471 8.71043615,1.56323978 8.95957953,2.46946574 L9.7070097,5.92960123 Z" id="path-7"></path>
        <path d="M1.64179104,16.3692369 C1.64179104,15.7881788 1.80020948,15.3731373 2.03783713,15.1241124 C2.27546478,14.8750875 2.67151087,14.7920792 3.22597539,14.7920792 L9.16666667,14.7920792 C9.72113119,14.7920792 10.1171773,14.8750875 10.3548049,15.1241124 C10.5924326,15.3731373 10.6716418,15.7881788 10.6716418,16.3692369 L10.6716418,46.0032003 C10.6716418,46.5842584 10.5924326,46.9992999 10.3548049,47.2483248 C10.1171773,47.4973497 9.72113119,47.6633663 9.16666667,47.6633663 L3.22597539,47.6633663 C2.67151087,47.6633663 2.27546478,47.4973497 2.03783713,47.2483248 C1.80020948,46.9992999 1.64179104,46.5842584 1.64179104,46.0032003 L1.64179104,16.3692369 Z M6.15671642,9.86138614 C4.51492537,9.86138614 3.28358209,9.45389084 2.29850746,8.55740119 C1.31343284,7.66091155 0.820895522,6.43842566 0.820895522,4.9714426 C0.820895522,3.42296048 1.31343284,2.28197365 2.29850746,1.385484 C3.28358209,0.407495295 4.59701493,0 6.15671642,0 C7.79850746,0 9.02985075,0.407495295 10.0149254,1.30398494 C11,2.20047459 11.4925373,3.42296048 11.4925373,4.88994354 C11.4925373,6.43842566 11,7.57941249 10.0149254,8.47590214 C9.1119403,9.37239178 7.79850746,9.86138614 6.15671642,9.86138614 Z" id="path-9"></path>
        <path d="M9.48289852,4.05641375 C11.7102707,2.56630258 13.7726524,1.49011117 15.5875483,0.910623495 C17.4024441,0.248351862 19.2998353,0 21.1972264,0 C25.0745039,0 27.7143525,1.40732722 29.3642578,4.1391977 C31.5091347,2.64908653 33.5715164,1.65567908 35.5514028,0.993407449 C37.4487939,0.331135816 39.4286803,0 41.491062,0 C44.4608916,0 46.7707591,0.827839541 48.4206644,2.48351862 C50.0705697,4.1391977 50.8955224,6.45714842 50.8955224,9.43737076 L50.8955224,32.0373902 C50.8955224,32.6168779 50.8130271,33.0307977 50.5655413,33.2791495 C50.3180555,33.5275014 49.9055792,33.6930693 49.3281123,33.6930693 L43.1409673,33.6930693 C42.5635005,33.6930693 42.1510241,33.5275014 41.9035383,33.2791495 C41.6560525,33.0307977 41.491062,32.6168779 41.491062,32.0373902 L41.491062,11.5069696 C41.491062,8.60953122 40.1711377,7.11942005 37.6137845,7.11942005 C35.303917,7.11942005 32.9940495,7.69890773 30.6016868,8.77509913 L30.6016868,9.43737076 L30.6016868,32.0373902 C30.6016868,32.6168779 30.5191915,33.0307977 30.2717057,33.2791495 C30.0242199,33.5275014 29.6117436,33.6930693 29.0342767,33.6930693 L22.8471317,33.6930693 C22.2696649,33.6930693 21.8571885,33.5275014 21.6097027,33.2791495 C21.3622169,33.0307977 21.1972264,32.6168779 21.1972264,32.0373902 L21.1972264,11.5069696 C21.1972264,8.60953122 19.8773021,7.11942005 17.3199489,7.11942005 C14.9275861,7.11942005 12.6177187,7.69890773 10.2253559,8.85788309 L10.2253559,32.0373902 C10.2253559,32.6168779 10.1428607,33.0307977 9.89537486,33.2791495 C9.64788906,33.5275014 9.23541272,33.6930693 8.65794586,33.6930693 L2.47080086,33.6930693 C1.89333399,33.6930693 1.48085766,33.5275014 1.23337186,33.2791495 C0.985886056,33.0307977 0.820895522,32.6168779 0.820895522,32.0373902 L0.820895522,2.48351862 C0.820895522,1.90403094 0.985886056,1.49011117 1.23337186,1.24175931 C1.48085766,0.993407449 1.89333399,0.910623495 2.47080086,0.910623495 L7.09053579,0.910623495 C8.08047899,0.910623495 8.65794586,1.40732722 8.90543166,2.31795071 L9.48289852,4.05641375 Z" id="path-11"></path>
        <path d="M15.8934494,6.57425743 C11.9029851,6.57425743 9.66832504,9.11585179 9.02985075,14.2837603 C10.7058458,14.6226396 12.5414594,14.7920792 14.5366915,14.7920792 C16.611733,14.7920792 18.2079187,14.4532 19.0858209,13.7754415 C20.0435323,13.097683 20.5223881,12.0810452 20.5223881,10.6408084 C20.5223881,8.01449423 19.0060116,6.57425743 15.8934494,6.57425743 M15.5112151,20.1817151 C13.0763555,20.1817151 11.0473058,19.934592 9.26174214,19.5227203 C9.5052281,22.4058224 10.39801,24.3828068 11.7777637,25.618422 C13.1575175,26.8540372 15.4300531,27.4306576 18.3518846,27.4306576 C19.4881525,27.4306576 20.7055823,27.3482833 21.7606881,27.1835346 C22.8969559,27.0187859 24.4390336,26.6892885 26.3869213,26.1950424 C26.5492453,26.1126681 26.6304073,26.1126681 26.7927313,26.1126681 C26.9550552,26.1126681 27.0362172,26.1126681 27.1173792,26.1126681 C27.8478371,26.1126681 28.172485,26.6069142 28.172485,27.5954063 L28.172485,30.5608828 C28.172485,31.2198776 28.091323,31.7141237 27.9289991,31.9612467 C27.7666751,32.2083698 27.3608652,32.4554928 26.7927313,32.7026158 C23.7085758,33.8558567 20.4620963,34.5148515 17.0532929,34.5148515 C11.8589257,34.5148515 7.80082638,33.1144876 5.04131883,30.1490111 C2.28181128,27.2659089 0.820895522,23.1471916 0.820895522,17.7104847 C0.820895522,12.1914034 2.28181128,7.82556299 5.12248082,4.69533779 C7.96315035,1.5651126 11.9400877,0 17.0532929,0 C20.9490682,0 24.0332237,0.988492167 26.2245974,2.88310215 C28.415971,4.77771214 29.5522388,7.3313169 29.5522388,10.5439164 C29.5522388,13.756516 28.334809,16.1453721 25.9811114,17.792859 C23.6274138,19.3579716 20.1374484,20.1817151 15.5112151,20.1817151" id="path-13"></path>
        <path d="M15.3360335,50.3492063 C14.9237217,50.3492063 14.51141,50.2668627 14.1815606,50.1845191 C13.8517112,50.1021755 13.6043242,49.8551446 13.4393995,49.6081137 C13.2744748,49.3610828 13.0270877,49.0317083 12.862163,48.5376466 L1.31743419,18.3998793 C1.15250949,18.0705048 1.07004714,17.7411303 0.987584796,17.4117558 C0.905122447,17.164725 0.822660099,16.9176941 0.822660099,16.6706632 C0.822660099,16.0119142 1.23497184,15.6825397 2.14205768,15.6825397 L8.90397028,15.6825397 C9.64613142,15.6825397 10.1409055,15.8472269 10.4707549,16.0942578 C10.8006043,16.3412887 11.0479913,16.8353505 11.212916,17.4117558 L18.1397533,41.3737511 L25.2315153,17.4117558 C25.39644,16.7530068 25.6438271,16.3412887 25.9736765,16.0942578 C26.3035259,15.8472269 26.8807623,15.6825397 27.5404611,15.6825397 L34.0549867,15.6825397 C34.9620725,15.6825397 35.3743842,16.0119142 35.3743842,16.6706632 C35.3743842,16.9176941 35.2919219,17.164725 35.2094595,17.4117558 C35.1269972,17.6587867 35.0445348,17.9881612 34.8796101,18.3998793 L23.3348813,48.5376466 C23.1699566,48.9493647 22.9225696,49.3610828 22.7576449,49.6081137 C22.5927202,49.8551446 22.3453331,50.0198318 22.0154837,50.1845191 C21.7680967,50.2668627 21.3557849,50.3492063 20.8610109,50.3492063 L15.3360335,50.3492063 Z M42.0236535,50.3492063 C41.4525506,50.3492063 41.04462,50.1845191 40.7182755,49.9374882 C40.391931,49.6904573 40.3103448,49.2787392 40.3103448,48.6199902 L40.3103448,17.4117558 C40.3103448,16.7530068 40.4735171,16.3412887 40.7182755,16.0942578 C40.9630338,15.8472269 41.3709645,15.6825397 42.0236535,15.6825397 L48.4689574,15.6825397 C49.1216464,15.6825397 49.529577,15.8472269 49.7743354,16.0942578 C50.0190938,16.3412887 50.182266,16.7530068 50.182266,17.4117558 L50.182266,48.6199902 C50.182266,49.1963956 50.0190938,49.6081137 49.7743354,49.9374882 C49.529577,50.1845191 49.1216464,50.3492063 48.4689574,50.3492063 L42.0236535,50.3492063 Z M45.2463054,10.7301587 C43.4936817,10.7301587 42.1583494,10.2271825 41.0733919,9.30505952 C39.9884344,8.29910714 39.4876847,7.04166667 39.4876847,5.36507937 C39.4876847,3.68849206 39.9884344,2.43105159 41.0733919,1.42509921 C42.1583494,0.419146825 43.4936817,0 45.2463054,0 C46.9989291,0 48.3342614,0.50297619 49.419219,1.42509921 C50.5041765,2.43105159 51.0049261,3.68849206 51.0049261,5.36507937 C51.0049261,7.04166667 50.5041765,8.29910714 49.419219,9.30505952 C48.3342614,10.3110119 46.9989291,10.7301587 45.2463054,10.7301587 Z M71.0303636,52 C68.1440134,52 65.5875318,51.2535309 63.4433859,49.6776517 C61.29924,48.1847135 59.649897,46.0282473 58.4953569,43.374135 C57.3408168,40.6370816 56.7635468,37.5682643 56.7635468,34.0018008 C56.7635468,28.3618121 58.0830212,23.8829976 60.72197,20.4824162 C63.3609187,17.0818348 66.9070062,15.4230146 71.2777651,15.4230146 C74.8238525,15.4230146 77.875137,16.4183067 80.5140858,18.491832 L80.5140858,2.56715804 C80.5140858,1.90362996 80.6790201,1.48892491 80.9264215,1.24010188 C81.173823,0.991278845 81.5861587,0.825396825 82.2458959,0.825396825 L88.7608007,0.825396825 C89.4205379,0.825396825 89.8328736,0.991278845 90.0802751,1.24010188 C90.3276765,1.48892491 90.4926108,1.90362996 90.4926108,2.56715804 L90.4926108,49.5947107 C90.4926108,50.1752978 90.3276765,50.5900028 90.0802751,50.9217669 C89.8328736,51.1705899 89.4205379,51.3364719 88.7608007,51.3364719 L83.400436,51.3364719 C82.823166,51.3364719 82.4108302,51.2535309 82.1634288,51.0047079 C81.8335602,50.7558848 81.6686259,50.4241208 81.5036916,49.8435337 L81.0913558,48.2676545 C78.1225385,50.7558848 74.8238525,52 71.0303636,52 Z M74.3399015,43.7460317 C76.5172414,43.7460317 78.6108374,43.0882442 80.6206897,41.8548927 L80.6206897,24.0124065 C78.6945813,22.8612784 76.4334975,22.2857143 73.8374384,22.2857143 C71.408867,22.2857143 69.6502463,23.1901721 68.3940887,24.9168643 C67.2216749,26.72578 66.635468,29.35693 66.635468,32.9747613 C66.635468,36.5925926 67.3054187,39.2237426 68.5615764,41.0326583 C69.817734,42.8415739 71.7438424,43.7460317 74.3399015,43.7460317 Z M150.135468,52 C144.839842,52 140.684812,50.3306581 137.75185,47.0754414 C134.737417,43.8202247 133.270936,39.2295345 133.270936,33.3868379 C133.270936,27.5441413 134.737417,23.0369181 137.75185,19.7817014 C140.766284,16.5264848 144.839842,14.8571429 150.135468,14.8571429 C155.431094,14.8571429 159.586124,16.5264848 162.519086,19.7817014 C165.533519,23.0369181 167,27.6276083 167,33.3868379 C167,39.2295345 165.533519,43.8202247 162.519086,47.0754414 C159.504652,50.3306581 155.431094,52 150.135468,52 Z M150.135468,43.7460317 C154.770105,43.7460317 157.128079,40.1282005 157.128079,32.9747613 C157.128079,25.8213221 154.770105,22.2857143 150.135468,22.2857143 C145.500831,22.2857143 143.142857,25.8213221 143.142857,32.9747613 C143.142857,40.2104239 145.419521,43.7460317 150.135468,43.7460317 Z M112.125859,36.9232562 C109.685,36.9232562 107.488226,36.6733654 105.698262,36.1735838 C105.942348,39.1722732 106.83733,41.3379933 108.301846,42.5874472 C109.766362,43.920198 112.044497,44.5032765 115.136253,44.5032765 C116.356683,44.5032765 117.495751,44.4199796 118.71618,44.2533858 C119.855248,44.0867919 121.482488,43.7536042 123.516538,43.2538226 C123.679262,43.1705257 123.760624,43.1705257 123.923348,43.1705257 L124.248796,43.1705257 C124.981053,43.1705257 125.387863,43.6703073 125.387863,44.7531673 L125.387863,47.8351536 C125.387863,48.584826 125.306501,49.0846075 125.062415,49.3344983 C124.899691,49.5843891 124.492882,49.9175768 123.923348,50.0841707 C120.75023,51.3336246 117.414389,52 113.834461,52 C108.46457,52 104.315109,50.5006553 101.386077,47.418669 C98.4570454,44.3366827 97.0738916,40.0052425 97.0738916,34.3410514 C97.0738916,28.5102665 98.5384074,23.9289355 101.467439,20.6803553 C104.396471,17.3484782 108.545932,15.6825397 113.753099,15.6825397 C117.821199,15.6825397 120.994316,16.6821028 123.272452,18.6812291 C125.550587,20.6803553 126.689655,23.345857 126.689655,26.761031 C126.689655,30.0929081 125.469225,32.6751129 123.028366,34.3410514 C120.587506,36.0902869 116.926217,36.9232562 112.125859,36.9232562 Z M113.541978,22.2857143 C109.290741,22.2857143 106.790013,24.9008329 106.123153,30.0493478 C107.873662,30.3762376 109.874244,30.5396825 112.041542,30.5396825 C114.292197,30.5396825 115.959348,30.2127927 116.959639,29.559013 C117.95993,28.9052334 118.460076,27.8428414 118.460076,26.4535596 C118.543434,23.6749961 116.876282,22.2857143 113.541978,22.2857143 Z" id="path-15"></path>
    </defs>
    <g id="Page-1" stroke="none" stroke-width="1" fill="none" fill-rule="evenodd">
        <g id="prime-video">
            <g id="Group" transform="translate(1.000000, 0.000000)">
                <g id="Clipped" transform="translate(0.000000, 129.019802)">
                    <g id="Shape-Clipped">
                        <mask id="mask-2" fill="white">
                            <use xlink:href="#path-1"></use>
                        </mask>
                        <g id="path-17"></g>
                        <polygon id="Shape" fill="#00A7E1" fill-rule="nonzero" mask="url(#mask-2)" points="-3.28358209 -4.10891089 155.970149 -4.10891089 155.970149 40.2673267 -3.28358209 40.2673267"></polygon>
                    </g>
                </g>
                <g id="Clipped" transform="translate(133.805970, 126.554455)">
                    <g id="Shape-Clipped">
                        <mask id="mask-4" fill="white">
                            <use xlink:href="#path-3"></use>
                        </mask>
                        <g id="path-19"></g>
                        <polygon id="Shape" fill="#00A7E1" fill-rule="nonzero" mask="url(#mask-4)" points="-4.10447761 -3.28712871 35.2985075 -3.28712871 35.2985075 37.8019802 -4.10447761 37.8019802"></polygon>
                    </g>
                </g>
                <g id="Clipped" transform="translate(0.000000, 13.970297)">
                    <g id="Shape-Clipped">
                        <mask id="mask-6" fill="white">
                            <use xlink:href="#path-5"></use>
                        </mask>
                        <g id="path-21"></g>
                        <polygon id="Shape" fill="#00A7E1" fill-rule="nonzero" mask="url(#mask-6)" points="-4.10447761 -4.10891089 36.119403 -4.10891089 36.119403 50.950495 -4.10447761 50.950495"></polygon>
                    </g>
                </g>
                <g id="Clipped" transform="translate(37.761194, 13.970297)">
                    <g id="Shape-Clipped">
                        <mask id="mask-8" fill="white">
                            <use xlink:href="#path-7"></use>
                        </mask>
                        <g id="path-23"></g>
                        <polygon id="Shape" fill="#00A7E1" fill-rule="nonzero" mask="url(#mask-8)" points="-3.28358209 -3.28712871 26.2686567 -3.28712871 26.2686567 37.8019802 -3.28358209 37.8019802"></polygon>
                    </g>
                </g>
                <g id="Clipped" transform="translate(62.388060, 0.000000)">
                    <g id="Shape-Clipped">
                        <mask id="mask-10" fill="white">
                            <use xlink:href="#path-9"></use>
                        </mask>
                        <g id="path-25"></g>
                        <polygon id="Shape" fill="#00A7E1" fill-rule="nonzero" mask="url(#mask-10)" points="-3.28358209 -4.10891089 15.5970149 -4.10891089 15.5970149 51.7722772 -3.28358209 51.7722772"></polygon>
                    </g>
                </g>
                <g id="Clipped" transform="translate(80.447761, 13.970297)">
                    <g id="Shape-Clipped">
                        <mask id="mask-12" fill="white">
                            <use xlink:href="#path-11"></use>
                        </mask>
                        <g id="path-27"></g>
                        <polygon id="Shape" fill="#00A7E1" fill-rule="nonzero" mask="url(#mask-12)" points="-3.28358209 -4.10891089 55 -4.10891089 55 37.8019802 -3.28358209 37.8019802"></polygon>
                    </g>
                </g>
                <g id="Clipped" transform="translate(135.447761, 13.970297)">
                    <g id="Shape-Clipped">
                        <mask id="mask-14" fill="white">
                            <use xlink:href="#path-13"></use>
                        </mask>
                        <g id="path-29"></g>
                        <polygon id="Shape" fill="#00A7E1" fill-rule="nonzero" mask="url(#mask-14)" points="-3.28358209 -4.10891089 33.6567164 -4.10891089 33.6567164 38.6237624 -3.28358209 38.6237624"></polygon>
                    </g>
                </g>
            </g>
            <g id="Clipped" transform="translate(0.000000, 63.000000)">
                <g id="Shape-Clipped">
                    <mask id="mask-16" fill="white">
                        <use xlink:href="#path-15"></use>
                    </mask>
                    <g id="path-31"></g>
                    <polygon id="Shape" fill="#212D3C" fill-rule="nonzero" mask="url(#mask-16)" points="-3.29064039 -4.12698413 171.1133 -4.12698413 171.1133 56.1269841 -3.29064039 56.1269841"></polygon>
                </g>
            </g>
        </g>
    </g>
</svg>