<?xml version="1.0" encoding="UTF-8"?>
<svg width="158px" height="110px" viewBox="0 0 158 110" version="1.1" xmlns="http://www.w3.org/2000/svg" xmlns:xlink="http://www.w3.org/1999/xlink">
    <!-- Generator: Sketch 56.3 (81716) - https://sketch.com -->
    <title>Slice 1</title>
    <desc>Created with Sketch.</desc>
    <g id="Page-1" stroke="none" stroke-width="1" fill="none" fill-rule="evenodd">
        <g id="YouTube_icon_full-color" fill-rule="nonzero">
            <path d="M154.4,17.5 C152.6,10.8 147.3,5.5 140.5,3.7 C128.2,0.5 79,0.5 79,0.5 C79,0.5 30.7,0.3 18.4,3.5 C11.6,5.3 5.1,10.8 3.3,17.5 C5.38458167e-15,29.7 0.3,55 0.3,55 C0.3,55 5.38458167e-15,80.3 3.3,92.5 C5.1,99.2 11.7,104.7 18.4,106.5 C30.7,109.8 79,109.5 79,109.5 C79,109.5 127.3,109.7 139.6,106.5 C146.4,104.7 152.7,99.2 154.5,92.5 C157.8,80.4 157.8,55 157.8,55 C157.8,55 157.7,29.7 154.4,17.5 Z" id="XMLID_142_" fill="#FF0000"></path>
            <polygon id="XMLID_824_" fill="#FFFFFF" points="63.9 79.2 103.2 55 63.9 30.8"></polygon>
        </g>
    </g>
</svg>